<svg enable-background="new 0 0 120 60" height="60" viewBox="0 0 120 60" width="120" xmlns="http://www.w3.org/2000/svg"><path d="m24.3 40.7c1.1-4 5-6.6 8.9-6.5 4.3.2 7.8 3.1 8.6 7.2.5 2.6.1 5-1.6 7.1-.2.2-.4.5-.6.8.9.8 1.7 1.6 2.7 2.7-1.2 0-2.2 0-3.3 0-.3-.3-.8-.7-1.2-1.1-1.1.4-2 .8-3.1 1-4.8 1-9.3-1.7-10.6-6.5-.2-1.1-.2-3.2.2-4.7zm11.6 8.1c-1.3-1.3-2.6-2.4-4.1-3.8h3.3c.8.7 1.6 1.5 2.4 2.3 2-1.7 2.3-6 .1-8.5-2.2-2.4-6.1-2.8-8.6-.9-2.6 2-3.3 6-1.6 8.7 1.8 2.8 5.4 4 8.5 2.2z"/><path d="m88.1 52.4c-.5-.5-1.1-.9-1.7-1.4 1.3-1.7 2.5-3.6 4-5.4-.3 0-.5-.1-.6-.1-4.2-.2-6.6-4.4-4.8-8 1.1-2.1 2.9-3.2 5.4-3.1 2.4.1 4.2 1.3 5.3 3.5.6 1.2.5 2.9.3 3.5-.3 1.2-.9 2.2-1.6 3.2-1.9 2.7-4 5.4-5.9 8-.3-.2-.3-.2-.4-.2zm2.1-15.6c-1.7 0-3.2 1.4-3.2 3.1s1.4 3.2 3.1 3.2c1.8.1 3.2-1.3 3.3-3.1 0-1.8-1.3-3.2-3.2-3.2z" fill="#d91c5c"/><path d="m78.9 51c-1.4 1.1-2.9 1.5-4.7 1-2.3-.7-3.8-2.8-3.7-5.7 0-2.7 1.5-4.9 3.9-5.5 1.3-.3 2.5-.2 3.7.5.3.2.6.4 1 .6 0-3 0-6 0-8.9h2.5v18.8c-.7 0-1.5 0-2.3 0-.2-.2-.3-.5-.4-.8zm-5.8-4.4c0 .2.1.7.2 1.1.4 1.1 1.1 1.9 2.3 2.1s2.2-.2 2.9-1.2c.8-1.2.8-3.1 0-4.3-.5-.8-1.2-1.2-2.1-1.3-1.9-.1-3.3 1.4-3.3 3.6z"/><path d="m65.2 41.9c.1-.3.1-.6.2-.9h2.4v10.8c-.8 0-1.5 0-2.3 0-.1-.2-.2-.5-.3-.8-.1.1-.3.1-.4.2-2.6 2-6.8.9-7.8-3-.5-2-.3-4 1-5.7 1.6-2 4.4-2.4 6.5-.9.3 0 .5.2.7.3zm-2.8 8c1.8 0 3-1.4 3-3.5s-1.3-3.5-3-3.5-3 1.4-3 3.5 1.2 3.5 3 3.5z"/><path d="m44.9 41h2.4c0 .4.1.7.1 1v4.8c0 .5 0 .9.1 1.4.2 1.1.8 1.6 1.9 1.6s1.8-.5 2-1.6c.1-.4.1-.8.1-1.2 0-1.6 0-3.2 0-4.8 0-.4 0-.8.1-1.2h2.3c.1.1.2.2.2.3 0 2.3.1 4.8-.1 7.1-.2 2.4-2.1 3.9-4.8 3.9-2.5-.1-4.4-1.7-4.4-4.2 0-2.3.1-4.6.1-7.1z"/><path d="m36.4 22.8-5.9 3.2c-.1 0-.2 0-.2-.1v-6.4c0-.1.1-.2.2-.1l5.9 3.2c.1 0 .1.2 0 .2z" fill="#d91c5c"/><path d="m36.4 14.9-5.9 3.2c-.1 0-.2 0-.2-.1v-6.4c0-.1.1-.2.2-.1l5.9 3.2c.1 0 .1.1 0 .2z"/><path d="m30.9 18.8 5.9 3.2c.1 0 .2 0 .2-.1v-6.4c0-.1-.1-.2-.2-.1l-5.9 3.2c-.1.1-.1.2 0 .2z"/><path d="m30.9 10.9 5.9 3.2c.1 0 .2 0 .2-.1v-6.4c0-.1-.1-.2-.2-.1l-5.9 3.2c-.1.1-.1.2 0 .2z"/><path d="m30.9 26.8 5.9 3.2c.1 0 .2 0 .2-.1v-6.4c0-.1-.1-.2-.2-.1l-5.9 3.2c-.1 0-.1.1 0 .2z"/><path d="m38.5 22.8 5.9 3.2c.1 0 .2 0 .2-.1v-6.4c0-.1-.1-.2-.2-.1l-5.9 3.2c-.1 0-.1.2 0 .2z"/><path d="m38.5 14.9 5.9 3.2c.1 0 .2 0 .2-.1v-6.4c0-.1-.1-.2-.2-.1l-5.9 3.2c-.1 0-.1.1 0 .2z"/><path d="m44 18.8-6 3.3c-.1 0-.2 0-.2-.1v-6.4c0-.1.1-.2.2-.1l5.9 3.2c.2 0 .2.1.1.1z"/><path d="m44 10.9-6 3.3c-.1 0-.2 0-.2-.1v-6.5c0-.1.1-.2.2-.1l5.9 3.2c.2.1.2.2.1.2z"/><path d="m44 26.8-6 3.2c-.1 0-.2 0-.2-.1v-6.4c0-.1.1-.2.2-.1l5.9 3.2c.1 0 .1.1.1.2z"/><path d="m51.5 22.8-6 3.2c-.1 0-.2 0-.2-.1v-6.4c0-.1.1-.2.2-.1l5.9 3.2c.2 0 .2.2.1.2z" fill="#a01d4c"/><path d="m51.5 14.9-5.9 3.2c-.1 0-.2 0-.2-.1v-6.4c0-.1.1-.2.2-.1l5.9 3.2c.1 0 .1.1 0 .2z"/><path d="m46 18.8 5.9 3.2c.1 0 .2 0 .2-.1v-6.4c0-.1-.1-.2-.2-.1l-5.9 3.2c-.1.1-.1.2 0 .2z"/><path d="m46 10.9 5.9 3.2c.1 0 .2 0 .2-.1v-6.4c0-.1-.1-.2-.2-.1l-5.9 3.2c-.1.1-.1.2 0 .2z"/><path d="m46 26.8 5.9 3.2c.1 0 .2 0 .2-.1v-6.4c0-.1-.1-.2-.2-.1l-5.9 3.1c-.1.1-.1.2 0 .3z"/><path d="m53.5 22.8 5.9 3.2c.1 0 .2 0 .2-.1v-6.4c0-.1-.1-.2-.2-.1l-5.9 3.2c-.1 0-.1.2 0 .2z"/><path d="m53.5 14.9 5.9 3.2c.1 0 .2 0 .2-.1v-6.4c0-.1-.1-.2-.2-.1l-5.9 3.2c-.1 0-.1.1 0 .2z"/><path d="m59 18.8-5.9 3.2c-.1 0-.2 0-.2-.1v-6.4c0-.1.1-.2.2-.1l5.9 3.2c.1.1.1.2 0 .2z"/><path d="m59 10.9-5.9 3.2c-.1 0-.2 0-.2-.1v-6.4c0-.1.1-.2.2-.1l5.9 3.2c.1.1.1.2 0 .2z"/><path d="m59 26.8-5.9 3.2c-.1 0-.2 0-.2-.1v-6.4c0-.1.1-.2.2-.1l5.9 3.2c.1 0 .1.1 0 .2z"/><path d="m66.5 22.8-5.9 3.2c-.1 0-.2 0-.2-.1v-6.4c0-.1.1-.2.2-.1l5.9 3.2c.1 0 .1.2 0 .2z" fill="#56112c"/><path d="m66.5 14.9-5.9 3.2c-.1 0-.2 0-.2-.1v-6.4c0-.1.1-.2.2-.1l5.9 3.2c.1 0 .1.1 0 .2z"/><path d="m61 18.8 5.9 3.2c.1 0 .2 0 .2-.1v-6.4c0-.1-.1-.2-.2-.1l-5.9 3.2c-.1.1-.1.2 0 .2z"/><path d="m61 10.9 5.9 3.2c.1 0 .2 0 .2-.1v-6.4c0-.1-.1-.2-.2-.1l-5.9 3.2c-.1.1-.1.2 0 .2z"/><path d="m61 26.8 5.9 3.2c.1 0 .2 0 .2-.1v-6.4c0-.1-.1-.2-.2-.1l-5.9 3.1c-.1.1-.1.2 0 .3z"/><path d="m68.5 22.8 5.9 3.2c.1 0 .2 0 .2-.1v-6.4c0-.1-.1-.2-.2-.1l-5.9 3.2c-.1 0-.1.2 0 .2z"/><path d="m68.5 14.9 5.9 3.2c.1 0 .2 0 .2-.1v-6.4c0-.1-.1-.2-.2-.1l-5.9 3.2c-.1 0-.1.1 0 .2z"/><path d="m74 18.8-5.9 3.2c-.1 0-.2 0-.2-.1v-6.4c0-.1.1-.2.2-.1l5.9 3.2c.1.1.1.2 0 .2z"/><path d="m74 10.9-5.9 3.2c-.1 0-.2 0-.2-.1v-6.4c0-.1.1-.2.2-.1l5.9 3.2c.1.1.1.2 0 .2z"/><path d="m74 26.8-5.9 3.2c-.1 0-.2 0-.2-.1v-6.4c0-.1.1-.2.2-.1l5.9 3.2c.1 0 .1.1 0 .2z"/><path d="m81.5 22.8-5.9 3.2c-.1 0-.2 0-.2-.1v-6.4c0-.1.1-.2.2-.1l5.9 3.2c.1 0 .1.2 0 .2z"/><path d="m81.5 14.9-5.9 3.2c-.1 0-.2 0-.2-.1v-6.4c0-.1.1-.2.2-.1l5.9 3.2c.1 0 .1.1 0 .2z"/><path d="m76 18.8 5.9 3.2c.1 0 .2 0 .2-.1v-6.4c0-.1-.1-.2-.2-.1l-5.9 3.2c-.1.1-.1.2 0 .2z"/><path d="m76 10.9 5.9 3.2c.1 0 .2 0 .2-.1v-6.4c0-.1-.1-.2-.2-.1l-5.9 3.2c-.1.1-.1.2 0 .2z"/><path d="m76 26.8 6 3.2c.1 0 .2 0 .2-.1v-6.4c0-.1-.1-.2-.2-.1l-6 3.1z"/><path d="m83.6 22.8 5.9 3.2c.1 0 .2 0 .2-.1v-6.4c0-.1-.1-.2-.2-.1l-5.9 3.2c-.1 0-.1.2 0 .2z"/><path d="m83.6 14.9 5.9 3.2c.1 0 .2 0 .2-.1v-6.4c0-.1-.1-.2-.2-.1l-5.9 3.2c-.1 0-.1.1 0 .2z"/><path d="m89.1 18.8-5.9 3.2c-.1 0-.2 0-.2-.1v-6.4c0-.1.1-.2.2-.1l5.9 3.2c.1.1.1.2 0 .2z"/><path d="m89.1 10.9-5.9 3.2c-.1 0-.2 0-.2-.1v-6.4c0-.1.1-.2.2-.1l5.9 3.2c.1.1.1.2 0 .2z"/><path d="m89.1 26.8-6 3.2c-.1 0-.2 0-.2-.1v-6.4c0-.1.1-.2.2-.1l5.9 3.2c.2 0 .2.1.1.2z"/></svg>