<?xml version="1.0" encoding="UTF-8" standalone="no"?>
<svg
   xmlns:dc="http://purl.org/dc/elements/1.1/"
   xmlns:cc="http://creativecommons.org/ns#"
   xmlns:rdf="http://www.w3.org/1999/02/22-rdf-syntax-ns#"
   xmlns:svg="http://www.w3.org/2000/svg"
   xmlns="http://www.w3.org/2000/svg"
   xmlns:sodipodi="http://sodipodi.sourceforge.net/DTD/sodipodi-0.dtd"
   xmlns:inkscape="http://www.inkscape.org/namespaces/inkscape"
   inkscape:version="1.0 (4035a4fb49, 2020-05-01)"
   sodipodi:docname="quad9.svg"
   id="svg92"
   version="1.1"
   width="72.186218"
   viewBox="0 0 72.186218 45.141422"
   height="45.141422"
   enable-background="new 0 0 120 60">
  <metadata
     id="metadata98">
    <rdf:RDF>
      <cc:Work
         rdf:about="">
        <dc:format>image/svg+xml</dc:format>
        <dc:type
           rdf:resource="http://purl.org/dc/dcmitype/StillImage" />
      </cc:Work>
    </rdf:RDF>
  </metadata>
  <defs
     id="defs96" />
  <sodipodi:namedview
     inkscape:current-layer="svg92"
     inkscape:window-maximized="0"
     inkscape:window-y="0"
     inkscape:window-x="0"
     inkscape:cy="32.204011"
     inkscape:cx="32.447039"
     inkscape:zoom="2.575"
     showgrid="false"
     id="namedview94"
     inkscape:window-height="480"
     inkscape:window-width="716"
     inkscape:pageshadow="2"
     inkscape:pageopacity="0"
     guidetolerance="10"
     gridtolerance="10"
     objecttolerance="10"
     borderopacity="1"
     bordercolor="#666666"
     pagecolor="#ffffff" />
  <path
     id="path2"
     d="m 0.33137085,33.241421 c 1.09999995,-4 4.99999995,-6.6 8.89999995,-6.5 4.3000002,0.2 7.8000002,3.1 8.6000002,7.2 0.5,2.6 0.1,5 -1.6,7.1 -0.2,0.2 -0.4,0.5 -0.6,0.8 0.9,0.8 1.7,1.6 2.7,2.7 -1.2,0 -2.2,0 -3.3,0 -0.3,-0.3 -0.8,-0.7 -1.2,-1.1 -1.1,0.4 -2,0.8 -3.1,1 -4.8000002,1 -9.3000002,-1.7 -10.60000015,-6.5 -0.2,-1.1 -0.2,-3.2 0.2,-4.7 z m 11.60000015,8.1 c -1.3,-1.3 -2.6000002,-2.4 -4.1000002,-3.8 h 3.3000002 c 0.8,0.7 1.6,1.5 2.4,2.3 2,-1.7 2.3,-6 0.1,-8.5 -2.2,-2.4 -6.1000002,-2.8 -8.6000002,-0.9 -2.6,2 -3.3,6 -1.6,8.7 1.8,2.8 5.4,4 8.5000002,2.2 z" />
  <path
     id="path4"
     fill="#d91c5c"
     d="m 64.131371,44.941421 c -0.5,-0.5 -1.1,-0.9 -1.7,-1.4 1.3,-1.7 2.5,-3.6 4,-5.4 -0.3,0 -0.5,-0.1 -0.6,-0.1 -4.2,-0.2 -6.6,-4.4 -4.8,-8 1.1,-2.1 2.9,-3.2 5.4,-3.1 2.4,0.1 4.2,1.3 5.3,3.5 0.6,1.2 0.5,2.9 0.3,3.5 -0.3,1.2 -0.9,2.2 -1.6,3.2 -1.9,2.7 -4,5.4 -5.9,8 -0.3,-0.2 -0.3,-0.2 -0.4,-0.2 z m 2.1,-15.6 c -1.7,0 -3.2,1.4 -3.2,3.1 0,1.7 1.4,3.2 3.1,3.2 1.8,0.1 3.2,-1.3 3.3,-3.1 0,-1.8 -1.3,-3.2 -3.2,-3.2 z" />
  <path
     id="path6"
     d="m 54.931371,43.541421 c -1.4,1.1 -2.9,1.5 -4.7,1 -2.3,-0.7 -3.8,-2.8 -3.7,-5.7 0,-2.7 1.5,-4.9 3.9,-5.5 1.3,-0.3 2.5,-0.2 3.7,0.5 0.3,0.2 0.6,0.4 1,0.6 0,-3 0,-6 0,-8.9 h 2.5 v 18.8 c -0.7,0 -1.5,0 -2.3,0 -0.2,-0.2 -0.3,-0.5 -0.4,-0.8 z m -5.8,-4.4 c 0,0.2 0.1,0.7 0.2,1.1 0.4,1.1 1.1,1.9 2.3,2.1 1.2,0.2 2.2,-0.2 2.9,-1.2 0.8,-1.2 0.8,-3.1 0,-4.3 -0.5,-0.8 -1.2,-1.2 -2.1,-1.3 -1.9,-0.1 -3.3,1.4 -3.3,3.6 z" />
  <path
     id="path8"
     d="m 41.231371,34.441421 c 0.1,-0.3 0.1,-0.6 0.2,-0.9 h 2.4 v 10.8 c -0.8,0 -1.5,0 -2.3,0 -0.1,-0.2 -0.2,-0.5 -0.3,-0.8 -0.1,0.1 -0.3,0.1 -0.4,0.2 -2.6,2 -6.8,0.9 -7.8,-3 -0.5,-2 -0.3,-4 1,-5.7 1.6,-2 4.4,-2.4 6.5,-0.9 0.3,0 0.5,0.2 0.7,0.3 z m -2.8,8 c 1.8,0 3,-1.4 3,-3.5 0,-2.1 -1.3,-3.5 -3,-3.5 -1.7,0 -3,1.4 -3,3.5 0,2.1 1.2,3.5 3,3.5 z" />
  <path
     id="path10"
     d="m 20.931371,33.541421 h 2.4 c 0,0.4 0.1,0.7 0.1,1 v 4.8 c 0,0.5 0,0.9 0.1,1.4 0.2,1.1 0.8,1.6 1.9,1.6 1.1,0 1.8,-0.5 2,-1.6 0.1,-0.4 0.1,-0.8 0.1,-1.2 0,-1.6 0,-3.2 0,-4.8 0,-0.4 0,-0.8 0.1,-1.2 h 2.3 c 0.1,0.1 0.2,0.2 0.2,0.3 0,2.3 0.1,4.8 -0.1,7.1 -0.2,2.4 -2.1,3.9 -4.8,3.9 -2.5,-0.1 -4.4,-1.7 -4.4,-4.2 0,-2.3 0.1,-4.6 0.1,-7.1 z" />
  <path
     id="path12"
     fill="#d91c5c"
     d="m 12.431371,15.341421 -5.9000002,3.2 c -0.1,0 -0.2,0 -0.2,-0.1 v -6.4 c 0,-0.1 0.1,-0.2 0.2,-0.1 l 5.9000002,3.2 c 0.1,0 0.1,0.2 0,0.2 z" />
  <path
     id="path14"
     d="M 12.431371,7.4414214 6.5313708,10.641421 c -0.1,0 -0.2,0 -0.2,-0.1 V 4.1414214 c 0,-0.1 0.1,-0.2 0.2,-0.1 l 5.9000002,3.2 c 0.1,0 0.1,0.1 0,0.2 z" />
  <path
     id="path16"
     d="m 6.9313708,11.341421 5.9000002,3.2 c 0.1,0 0.2,0 0.2,-0.1 V 8.0414214 c 0,-0.1 -0.1,-0.2 -0.2,-0.1 L 6.9313708,11.141421 c -0.1,0.1 -0.1,0.2 0,0.2 z" />
  <path
     id="path18"
     d="m 6.9313708,3.4414214 5.9000002,3.2 c 0.1,0 0.2,0 0.2,-0.1 V 0.14142136 c 0,-0.1 -0.1,-0.2 -0.2,-0.1 L 6.9313708,3.2414214 c -0.1,0.1 -0.1,0.2 0,0.2 z" />
  <path
     id="path20"
     d="m 6.9313708,19.341421 5.9000002,3.2 c 0.1,0 0.2,0 0.2,-0.1 v -6.4 c 0,-0.1 -0.1,-0.2 -0.2,-0.1 l -5.9000002,3.2 c -0.1,0 -0.1,0.1 0,0.2 z" />
  <path
     id="path22"
     d="m 14.531371,15.341421 5.9,3.2 c 0.1,0 0.2,0 0.2,-0.1 v -6.4 c 0,-0.1 -0.1,-0.2 -0.2,-0.1 l -5.9,3.2 c -0.1,0 -0.1,0.2 0,0.2 z" />
  <path
     id="path24"
     d="m 14.531371,7.4414214 5.9,3.1999996 c 0.1,0 0.2,0 0.2,-0.1 V 4.1414214 c 0,-0.1 -0.1,-0.2 -0.2,-0.1 l -5.9,3.2 c -0.1,0 -0.1,0.1 0,0.2 z" />
  <path
     id="path26"
     d="m 20.031371,11.341421 -6,3.3 c -0.1,0 -0.2,0 -0.2,-0.1 V 8.1414214 c 0,-0.1 0.1,-0.2 0.2,-0.1 l 5.9,3.1999996 c 0.2,0 0.2,0.1 0.1,0.1 z" />
  <path
     id="path28"
     d="m 20.031371,3.4414214 -6,3.3 c -0.1,0 -0.2,0 -0.2,-0.1 V 0.14142136 c 0,-0.1 0.1,-0.2 0.2,-0.1 l 5.9,3.20000004 c 0.2,0.1 0.2,0.2 0.1,0.2 z" />
  <path
     id="path30"
     d="m 20.031371,19.341421 -6,3.2 c -0.1,0 -0.2,0 -0.2,-0.1 v -6.4 c 0,-0.1 0.1,-0.2 0.2,-0.1 l 5.9,3.2 c 0.1,0 0.1,0.1 0.1,0.2 z" />
  <path
     id="path32"
     fill="#a01d4c"
     d="m 27.531371,15.341421 -6,3.2 c -0.1,0 -0.2,0 -0.2,-0.1 v -6.4 c 0,-0.1 0.1,-0.2 0.2,-0.1 l 5.9,3.2 c 0.2,0 0.2,0.2 0.1,0.2 z" />
  <path
     id="path34"
     d="m 27.531371,7.4414214 -5.9,3.1999996 c -0.1,0 -0.2,0 -0.2,-0.1 V 4.1414214 c 0,-0.1 0.1,-0.2 0.2,-0.1 l 5.9,3.2 c 0.1,0 0.1,0.1 0,0.2 z" />
  <path
     id="path36"
     d="m 22.031371,11.341421 5.9,3.2 c 0.1,0 0.2,0 0.2,-0.1 V 8.0414214 c 0,-0.1 -0.1,-0.2 -0.2,-0.1 l -5.9,3.1999996 c -0.1,0.1 -0.1,0.2 0,0.2 z" />
  <path
     id="path38"
     d="m 22.031371,3.4414214 5.9,3.2 c 0.1,0 0.2,0 0.2,-0.1 V 0.14142136 c 0,-0.1 -0.1,-0.2 -0.2,-0.1 l -5.9,3.20000004 c -0.1,0.1 -0.1,0.2 0,0.2 z" />
  <path
     id="path40"
     d="m 22.031371,19.341421 5.9,3.2 c 0.1,0 0.2,0 0.2,-0.1 v -6.4 c 0,-0.1 -0.1,-0.2 -0.2,-0.1 l -5.9,3.1 c -0.1,0.1 -0.1,0.2 0,0.3 z" />
  <path
     id="path42"
     d="m 29.531371,15.341421 5.9,3.2 c 0.1,0 0.2,0 0.2,-0.1 v -6.4 c 0,-0.1 -0.1,-0.2 -0.2,-0.1 l -5.9,3.2 c -0.1,0 -0.1,0.2 0,0.2 z" />
  <path
     id="path44"
     d="m 29.531371,7.4414214 5.9,3.1999996 c 0.1,0 0.2,0 0.2,-0.1 V 4.1414214 c 0,-0.1 -0.1,-0.2 -0.2,-0.1 l -5.9,3.2 c -0.1,0 -0.1,0.1 0,0.2 z" />
  <path
     id="path46"
     d="m 35.031371,11.341421 -5.9,3.2 c -0.1,0 -0.2,0 -0.2,-0.1 V 8.0414214 c 0,-0.1 0.1,-0.2 0.2,-0.1 l 5.9,3.1999996 c 0.1,0.1 0.1,0.2 0,0.2 z" />
  <path
     id="path48"
     d="m 35.031371,3.4414214 -5.9,3.2 c -0.1,0 -0.2,0 -0.2,-0.1 V 0.14142136 c 0,-0.1 0.1,-0.2 0.2,-0.1 l 5.9,3.20000004 c 0.1,0.1 0.1,0.2 0,0.2 z" />
  <path
     id="path50"
     d="m 35.031371,19.341421 -5.9,3.2 c -0.1,0 -0.2,0 -0.2,-0.1 v -6.4 c 0,-0.1 0.1,-0.2 0.2,-0.1 l 5.9,3.2 c 0.1,0 0.1,0.1 0,0.2 z" />
  <path
     id="path52"
     fill="#56112c"
     d="m 42.531371,15.341421 -5.9,3.2 c -0.1,0 -0.2,0 -0.2,-0.1 v -6.4 c 0,-0.1 0.1,-0.2 0.2,-0.1 l 5.9,3.2 c 0.1,0 0.1,0.2 0,0.2 z" />
  <path
     id="path54"
     d="m 42.531371,7.4414214 -5.9,3.1999996 c -0.1,0 -0.2,0 -0.2,-0.1 V 4.1414214 c 0,-0.1 0.1,-0.2 0.2,-0.1 l 5.9,3.2 c 0.1,0 0.1,0.1 0,0.2 z" />
  <path
     id="path56"
     d="m 37.031371,11.341421 5.9,3.2 c 0.1,0 0.2,0 0.2,-0.1 V 8.0414214 c 0,-0.1 -0.1,-0.2 -0.2,-0.1 l -5.9,3.1999996 c -0.1,0.1 -0.1,0.2 0,0.2 z" />
  <path
     id="path58"
     d="m 37.031371,3.4414214 5.9,3.2 c 0.1,0 0.2,0 0.2,-0.1 V 0.14142136 c 0,-0.1 -0.1,-0.2 -0.2,-0.1 l -5.9,3.20000004 c -0.1,0.1 -0.1,0.2 0,0.2 z" />
  <path
     id="path60"
     d="m 37.031371,19.341421 5.9,3.2 c 0.1,0 0.2,0 0.2,-0.1 v -6.4 c 0,-0.1 -0.1,-0.2 -0.2,-0.1 l -5.9,3.1 c -0.1,0.1 -0.1,0.2 0,0.3 z" />
  <path
     id="path62"
     d="m 44.531371,15.341421 5.9,3.2 c 0.1,0 0.2,0 0.2,-0.1 v -6.4 c 0,-0.1 -0.1,-0.2 -0.2,-0.1 l -5.9,3.2 c -0.1,0 -0.1,0.2 0,0.2 z" />
  <path
     id="path64"
     d="m 44.531371,7.4414214 5.9,3.1999996 c 0.1,0 0.2,0 0.2,-0.1 V 4.1414214 c 0,-0.1 -0.1,-0.2 -0.2,-0.1 l -5.9,3.2 c -0.1,0 -0.1,0.1 0,0.2 z" />
  <path
     id="path66"
     d="m 50.031371,11.341421 -5.9,3.2 c -0.1,0 -0.2,0 -0.2,-0.1 V 8.0414214 c 0,-0.1 0.1,-0.2 0.2,-0.1 l 5.9,3.1999996 c 0.1,0.1 0.1,0.2 0,0.2 z" />
  <path
     id="path68"
     d="m 50.031371,3.4414214 -5.9,3.2 c -0.1,0 -0.2,0 -0.2,-0.1 V 0.14142136 c 0,-0.1 0.1,-0.2 0.2,-0.1 l 5.9,3.20000004 c 0.1,0.1 0.1,0.2 0,0.2 z" />
  <path
     id="path70"
     d="m 50.031371,19.341421 -5.9,3.2 c -0.1,0 -0.2,0 -0.2,-0.1 v -6.4 c 0,-0.1 0.1,-0.2 0.2,-0.1 l 5.9,3.2 c 0.1,0 0.1,0.1 0,0.2 z" />
  <path
     id="path72"
     d="m 57.531371,15.341421 -5.9,3.2 c -0.1,0 -0.2,0 -0.2,-0.1 v -6.4 c 0,-0.1 0.1,-0.2 0.2,-0.1 l 5.9,3.2 c 0.1,0 0.1,0.2 0,0.2 z" />
  <path
     id="path74"
     d="m 57.531371,7.4414214 -5.9,3.1999996 c -0.1,0 -0.2,0 -0.2,-0.1 V 4.1414214 c 0,-0.1 0.1,-0.2 0.2,-0.1 l 5.9,3.2 c 0.1,0 0.1,0.1 0,0.2 z" />
  <path
     id="path76"
     d="m 52.031371,11.341421 5.9,3.2 c 0.1,0 0.2,0 0.2,-0.1 V 8.0414214 c 0,-0.1 -0.1,-0.2 -0.2,-0.1 l -5.9,3.1999996 c -0.1,0.1 -0.1,0.2 0,0.2 z" />
  <path
     id="path78"
     d="m 52.031371,3.4414214 5.9,3.2 c 0.1,0 0.2,0 0.2,-0.1 V 0.14142136 c 0,-0.1 -0.1,-0.2 -0.2,-0.1 l -5.9,3.20000004 c -0.1,0.1 -0.1,0.2 0,0.2 z" />
  <path
     id="path80"
     d="m 52.031371,19.341421 6,3.2 c 0.1,0 0.2,0 0.2,-0.1 v -6.4 c 0,-0.1 -0.1,-0.2 -0.2,-0.1 l -6,3.1 z" />
  <path
     id="path82"
     d="m 59.631371,15.341421 5.9,3.2 c 0.1,0 0.2,0 0.2,-0.1 v -6.4 c 0,-0.1 -0.1,-0.2 -0.2,-0.1 l -5.9,3.2 c -0.1,0 -0.1,0.2 0,0.2 z" />
  <path
     id="path84"
     d="m 59.631371,7.4414214 5.9,3.1999996 c 0.1,0 0.2,0 0.2,-0.1 V 4.1414214 c 0,-0.1 -0.1,-0.2 -0.2,-0.1 l -5.9,3.2 c -0.1,0 -0.1,0.1 0,0.2 z" />
  <path
     id="path86"
     d="m 65.131371,11.341421 -5.9,3.2 c -0.1,0 -0.2,0 -0.2,-0.1 V 8.0414214 c 0,-0.1 0.1,-0.2 0.2,-0.1 l 5.9,3.1999996 c 0.1,0.1 0.1,0.2 0,0.2 z" />
  <path
     id="path88"
     d="m 65.131371,3.4414214 -5.9,3.2 c -0.1,0 -0.2,0 -0.2,-0.1 V 0.14142136 c 0,-0.1 0.1,-0.2 0.2,-0.1 l 5.9,3.20000004 c 0.1,0.1 0.1,0.2 0,0.2 z" />
  <path
     id="path90"
     d="m 65.131371,19.341421 -6,3.2 c -0.1,0 -0.2,0 -0.2,-0.1 v -6.4 c 0,-0.1 0.1,-0.2 0.2,-0.1 l 5.9,3.2 c 0.2,0 0.2,0.1 0.1,0.2 z" />
</svg>
